<svg xmlns="http://www.w3.org/2000/svg" viewBox="0 0 1200 700" fill="none">
  <!-- Browser chrome -->
  <rect width="1200" height="700" fill="#0a0a0b" rx="12"/>
  <rect width="1200" height="44" fill="#1c1c1e" rx="12"/>
  <rect y="32" width="1200" height="12" fill="#1c1c1e"/>
  <circle cx="20" cy="22" r="6" fill="#ff5f57"/>
  <circle cx="40" cy="22" r="6" fill="#febc2e"/>
  <circle cx="60" cy="22" r="6" fill="#28c840"/>
  <rect x="200" y="10" width="400" height="24" rx="12" fill="#2a2a2e"/>
  <text x="400" y="27" font-family="system-ui,sans-serif" font-size="11" fill="#888" text-anchor="middle">localhost:3000/dashboard</text>

  <!-- Sidebar -->
  <rect x="0" y="44" width="220" height="656" fill="#111113"/>
  <rect x="20" y="64" width="180" height="36" rx="8" fill="#1a1a1e"/>
  <circle cx="44" cy="82" r="12" fill="#3b82f6"/>
  <text x="42" y="87" font-family="system-ui,sans-serif" font-size="11" fill="white" text-anchor="middle" font-weight="bold">O</text>
  <text x="66" y="87" font-family="system-ui,sans-serif" font-size="13" fill="white" font-weight="600">OpsBoard</text>

  <!-- Nav items -->
  <rect x="16" y="120" width="188" height="36" rx="8" fill="#3b82f620"/>
  <text x="52" y="143" font-family="system-ui,sans-serif" font-size="13" fill="#3b82f6" font-weight="500">Dashboard</text>
  <rect x="24" y="130" width="16" height="16" rx="3" fill="none" stroke="#3b82f6" stroke-width="1.5"/>

  <text x="52" y="179" font-family="system-ui,sans-serif" font-size="13" fill="#71717a">Projects</text>
  <text x="52" y="215" font-family="system-ui,sans-serif" font-size="13" fill="#71717a">Team</text>
  <text x="52" y="251" font-family="system-ui,sans-serif" font-size="13" fill="#71717a">Activity</text>
  <text x="52" y="287" font-family="system-ui,sans-serif" font-size="13" fill="#71717a">Files</text>
  <text x="52" y="323" font-family="system-ui,sans-serif" font-size="13" fill="#71717a">Settings</text>

  <line x1="16" y1="350" x2="204" y2="350" stroke="#27272a" stroke-width="1"/>
  <text x="24" y="375" font-family="system-ui,sans-serif" font-size="10" fill="#52525b" font-weight="600" letter-spacing="1">ADMIN</text>
  <text x="52" y="400" font-family="system-ui,sans-serif" font-size="13" fill="#71717a">Users</text>
  <text x="52" y="436" font-family="system-ui,sans-serif" font-size="13" fill="#71717a">Webhooks</text>

  <!-- User avatar bottom -->
  <rect x="16" y="650" width="188" height="40" rx="8" fill="#1a1a1e"/>
  <circle cx="40" cy="670" r="14" fill="#3b82f6"/>
  <text x="40" y="675" font-family="system-ui,sans-serif" font-size="11" fill="white" text-anchor="middle" font-weight="bold">ID</text>
  <text x="62" y="666" font-family="system-ui,sans-serif" font-size="12" fill="white">Idir N.</text>
  <text x="62" y="680" font-family="system-ui,sans-serif" font-size="10" fill="#71717a">Admin</text>

  <!-- Main content area -->
  <!-- Header -->
  <text x="248" y="82" font-family="system-ui,sans-serif" font-size="22" fill="white" font-weight="700">Dashboard</text>
  <text x="248" y="102" font-family="system-ui,sans-serif" font-size="13" fill="#71717a">Overview of your workspace</text>

  <!-- Search bar top right -->
  <rect x="880" y="58" width="200" height="32" rx="8" fill="#1a1a1e" stroke="#27272a" stroke-width="1"/>
  <text x="900" y="79" font-family="system-ui,sans-serif" font-size="12" fill="#52525b">Search...</text>
  <rect x="1040" y="66" width="28" height="16" rx="4" fill="#27272a"/>
  <text x="1054" y="78" font-family="system-ui,sans-serif" font-size="9" fill="#71717a" text-anchor="middle">⌘K</text>

  <!-- Notification bell -->
  <circle cx="1120" cy="74" r="14" fill="#1a1a1e" stroke="#27272a" stroke-width="1"/>
  <circle cx="1126" cy="68" r="4" fill="#ef4444"/>

  <!-- Stats Cards Row -->
  <rect x="240" y="120" width="220" height="100" rx="12" fill="#1a1a1e" stroke="#27272a" stroke-width="1"/>
  <text x="264" y="148" font-family="system-ui,sans-serif" font-size="12" fill="#71717a">Total Projects</text>
  <text x="264" y="180" font-family="system-ui,sans-serif" font-size="28" fill="white" font-weight="700">24</text>
  <rect x="400" y="170" width="44" height="18" rx="9" fill="#10b98120"/>
  <text x="422" y="183" font-family="system-ui,sans-serif" font-size="10" fill="#10b981" text-anchor="middle">+12%</text>

  <rect x="480" y="120" width="220" height="100" rx="12" fill="#1a1a1e" stroke="#27272a" stroke-width="1"/>
  <text x="504" y="148" font-family="system-ui,sans-serif" font-size="12" fill="#71717a">Active Tasks</text>
  <text x="504" y="180" font-family="system-ui,sans-serif" font-size="28" fill="white" font-weight="700">156</text>
  <rect x="640" y="170" width="44" height="18" rx="9" fill="#10b98120"/>
  <text x="662" y="183" font-family="system-ui,sans-serif" font-size="10" fill="#10b981" text-anchor="middle">+8%</text>

  <rect x="720" y="120" width="220" height="100" rx="12" fill="#1a1a1e" stroke="#27272a" stroke-width="1"/>
  <text x="744" y="148" font-family="system-ui,sans-serif" font-size="12" fill="#71717a">Team Members</text>
  <text x="744" y="180" font-family="system-ui,sans-serif" font-size="28" fill="white" font-weight="700">12</text>
  <rect x="880" y="170" width="44" height="18" rx="9" fill="#3b82f620"/>
  <text x="902" y="183" font-family="system-ui,sans-serif" font-size="10" fill="#3b82f6" text-anchor="middle">+2</text>

  <rect x="960" y="120" width="220" height="100" rx="12" fill="#1a1a1e" stroke="#27272a" stroke-width="1"/>
  <text x="984" y="148" font-family="system-ui,sans-serif" font-size="12" fill="#71717a">Completion Rate</text>
  <text x="984" y="180" font-family="system-ui,sans-serif" font-size="28" fill="white" font-weight="700">87%</text>
  <rect x="1120" y="170" width="44" height="18" rx="9" fill="#10b98120"/>
  <text x="1142" y="183" font-family="system-ui,sans-serif" font-size="10" fill="#10b981" text-anchor="middle">+5%</text>

  <!-- Chart area -->
  <rect x="240" y="240" width="490" height="280" rx="12" fill="#1a1a1e" stroke="#27272a" stroke-width="1"/>
  <text x="264" y="270" font-family="system-ui,sans-serif" font-size="14" fill="white" font-weight="600">Task Completion</text>
  <text x="264" y="288" font-family="system-ui,sans-serif" font-size="11" fill="#71717a">Last 7 days</text>

  <!-- Chart grid lines -->
  <line x1="290" y1="310" x2="700" y2="310" stroke="#27272a" stroke-width="0.5"/>
  <line x1="290" y1="350" x2="700" y2="350" stroke="#27272a" stroke-width="0.5"/>
  <line x1="290" y1="390" x2="700" y2="390" stroke="#27272a" stroke-width="0.5"/>
  <line x1="290" y1="430" x2="700" y2="430" stroke="#27272a" stroke-width="0.5"/>
  <line x1="290" y1="470" x2="700" y2="470" stroke="#27272a" stroke-width="0.5"/>

  <!-- Y-axis labels -->
  <text x="274" y="314" font-family="system-ui,sans-serif" font-size="9" fill="#52525b" text-anchor="end">40</text>
  <text x="274" y="354" font-family="system-ui,sans-serif" font-size="9" fill="#52525b" text-anchor="end">30</text>
  <text x="274" y="394" font-family="system-ui,sans-serif" font-size="9" fill="#52525b" text-anchor="end">20</text>
  <text x="274" y="434" font-family="system-ui,sans-serif" font-size="9" fill="#52525b" text-anchor="end">10</text>
  <text x="274" y="474" font-family="system-ui,sans-serif" font-size="9" fill="#52525b" text-anchor="end">0</text>

  <!-- Area chart fill -->
  <path d="M300,440 L360,410 L420,380 L480,350 L540,320 L600,335 L660,310 L660,470 L300,470 Z" fill="#3b82f615"/>
  <!-- Line chart -->
  <path d="M300,440 L360,410 L420,380 L480,350 L540,320 L600,335 L660,310" stroke="#3b82f6" stroke-width="2.5" fill="none" stroke-linecap="round" stroke-linejoin="round"/>
  <!-- Data points -->
  <circle cx="300" cy="440" r="4" fill="#3b82f6"/>
  <circle cx="360" cy="410" r="4" fill="#3b82f6"/>
  <circle cx="420" cy="380" r="4" fill="#3b82f6"/>
  <circle cx="480" cy="350" r="4" fill="#3b82f6"/>
  <circle cx="540" cy="320" r="4" fill="#3b82f6"/>
  <circle cx="600" cy="335" r="4" fill="#3b82f6"/>
  <circle cx="660" cy="310" r="5" fill="#3b82f6" stroke="white" stroke-width="2"/>

  <!-- X-axis labels -->
  <text x="300" y="492" font-family="system-ui,sans-serif" font-size="9" fill="#52525b" text-anchor="middle">Mon</text>
  <text x="360" y="492" font-family="system-ui,sans-serif" font-size="9" fill="#52525b" text-anchor="middle">Tue</text>
  <text x="420" y="492" font-family="system-ui,sans-serif" font-size="9" fill="#52525b" text-anchor="middle">Wed</text>
  <text x="480" y="492" font-family="system-ui,sans-serif" font-size="9" fill="#52525b" text-anchor="middle">Thu</text>
  <text x="540" y="492" font-family="system-ui,sans-serif" font-size="9" fill="#52525b" text-anchor="middle">Fri</text>
  <text x="600" y="492" font-family="system-ui,sans-serif" font-size="9" fill="#52525b" text-anchor="middle">Sat</text>
  <text x="660" y="492" font-family="system-ui,sans-serif" font-size="9" fill="#52525b" text-anchor="middle">Sun</text>

  <!-- Recent Activity panel -->
  <rect x="750" y="240" width="430" height="280" rx="12" fill="#1a1a1e" stroke="#27272a" stroke-width="1"/>
  <text x="774" y="270" font-family="system-ui,sans-serif" font-size="14" fill="white" font-weight="600">Recent Activity</text>

  <!-- Activity items -->
  <circle cx="786" cy="306" r="4" fill="#10b981"/>
  <text x="800" y="310" font-family="system-ui,sans-serif" font-size="12" fill="#e4e4e7">Sarah deployed <tspan fill="#3b82f6">frontend-v2.1</tspan></text>
  <text x="800" y="326" font-family="system-ui,sans-serif" font-size="10" fill="#52525b">2 minutes ago</text>

  <circle cx="786" cy="352" r="4" fill="#f59e0b"/>
  <text x="800" y="356" font-family="system-ui,sans-serif" font-size="12" fill="#e4e4e7">Mike updated task <tspan fill="#3b82f6">AUTH-142</tspan></text>
  <text x="800" y="372" font-family="system-ui,sans-serif" font-size="10" fill="#52525b">15 minutes ago</text>

  <circle cx="786" cy="398" r="4" fill="#3b82f6"/>
  <text x="800" y="402" font-family="system-ui,sans-serif" font-size="12" fill="#e4e4e7">New member <tspan fill="#3b82f6">Alex</tspan> joined</text>
  <text x="800" y="418" font-family="system-ui,sans-serif" font-size="10" fill="#52525b">1 hour ago</text>

  <circle cx="786" cy="444" r="4" fill="#ef4444"/>
  <text x="800" y="448" font-family="system-ui,sans-serif" font-size="12" fill="#e4e4e7">Build failed on <tspan fill="#3b82f6">staging</tspan></text>
  <text x="800" y="464" font-family="system-ui,sans-serif" font-size="10" fill="#52525b">2 hours ago</text>

  <circle cx="786" cy="490" r="4" fill="#10b981"/>
  <text x="800" y="494" font-family="system-ui,sans-serif" font-size="12" fill="#e4e4e7">PR merged: <tspan fill="#3b82f6">#89 fix auth flow</tspan></text>
  <text x="800" y="510" font-family="system-ui,sans-serif" font-size="10" fill="#52525b">3 hours ago</text>

  <!-- Projects overview -->
  <rect x="240" y="540" width="940" height="140" rx="12" fill="#1a1a1e" stroke="#27272a" stroke-width="1"/>
  <text x="264" y="570" font-family="system-ui,sans-serif" font-size="14" fill="white" font-weight="600">Active Projects</text>

  <!-- Project cards -->
  <rect x="264" y="586" width="200" height="74" rx="8" fill="#27272a50" stroke="#27272a" stroke-width="1"/>
  <text x="280" y="608" font-family="system-ui,sans-serif" font-size="12" fill="white" font-weight="500">Frontend Redesign</text>
  <rect x="280" y="618" width="120" height="4" rx="2" fill="#27272a"/>
  <rect x="280" y="618" width="84" height="4" rx="2" fill="#3b82f6"/>
  <text x="280" y="640" font-family="system-ui,sans-serif" font-size="10" fill="#71717a">70% · 8 tasks left</text>

  <rect x="484" y="586" width="200" height="74" rx="8" fill="#27272a50" stroke="#27272a" stroke-width="1"/>
  <text x="500" y="608" font-family="system-ui,sans-serif" font-size="12" fill="white" font-weight="500">API Migration</text>
  <rect x="500" y="618" width="120" height="4" rx="2" fill="#27272a"/>
  <rect x="500" y="618" width="54" height="4" rx="2" fill="#f59e0b"/>
  <text x="500" y="640" font-family="system-ui,sans-serif" font-size="10" fill="#71717a">45% · 14 tasks left</text>

  <rect x="704" y="586" width="200" height="74" rx="8" fill="#27272a50" stroke="#27272a" stroke-width="1"/>
  <text x="720" y="608" font-family="system-ui,sans-serif" font-size="12" fill="white" font-weight="500">Mobile App</text>
  <rect x="720" y="618" width="120" height="4" rx="2" fill="#27272a"/>
  <rect x="720" y="618" width="108" height="4" rx="2" fill="#10b981"/>
  <text x="720" y="640" font-family="system-ui,sans-serif" font-size="10" fill="#71717a">90% · 3 tasks left</text>

  <rect x="924" y="586" width="200" height="74" rx="8" fill="#27272a50" stroke="#27272a" stroke-width="1"/>
  <text x="940" y="608" font-family="system-ui,sans-serif" font-size="12" fill="white" font-weight="500">Auth System</text>
  <rect x="940" y="618" width="120" height="4" rx="2" fill="#27272a"/>
  <rect x="940" y="618" width="30" height="4" rx="2" fill="#8b5cf6"/>
  <text x="940" y="640" font-family="system-ui,sans-serif" font-size="10" fill="#71717a">25% · 18 tasks left</text>
</svg>