<svg xmlns="http://www.w3.org/2000/svg" viewBox="0 0 1200 700" fill="none">
  <!-- Browser chrome -->
  <rect width="1200" height="700" fill="#0a0a0b" rx="12"/>
  <rect width="1200" height="44" fill="#1c1c1e" rx="12"/>
  <rect y="32" width="1200" height="12" fill="#1c1c1e"/>
  <circle cx="20" cy="22" r="6" fill="#ff5f57"/>
  <circle cx="40" cy="22" r="6" fill="#febc2e"/>
  <circle cx="60" cy="22" r="6" fill="#28c840"/>
  <rect x="200" y="10" width="400" height="24" rx="12" fill="#2a2a2e"/>
  <text x="400" y="27" font-family="system-ui,sans-serif" font-size="11" fill="#888" text-anchor="middle">localhost:3000/projects</text>

  <!-- Sidebar (simplified) -->
  <rect x="0" y="44" width="220" height="656" fill="#111113"/>
  <rect x="20" y="64" width="180" height="36" rx="8" fill="#1a1a1e"/>
  <circle cx="44" cy="82" r="12" fill="#3b82f6"/>
  <text x="42" y="87" font-family="system-ui,sans-serif" font-size="11" fill="white" text-anchor="middle" font-weight="bold">O</text>
  <text x="66" y="87" font-family="system-ui,sans-serif" font-size="13" fill="white" font-weight="600">OpsBoard</text>

  <text x="52" y="143" font-family="system-ui,sans-serif" font-size="13" fill="#71717a">Dashboard</text>
  <rect x="16" y="156" width="188" height="36" rx="8" fill="#3b82f620"/>
  <text x="52" y="179" font-family="system-ui,sans-serif" font-size="13" fill="#3b82f6" font-weight="500">Projects</text>
  <text x="52" y="215" font-family="system-ui,sans-serif" font-size="13" fill="#71717a">Team</text>
  <text x="52" y="251" font-family="system-ui,sans-serif" font-size="13" fill="#71717a">Activity</text>

  <!-- Main content -->
  <text x="248" y="82" font-family="system-ui,sans-serif" font-size="22" fill="white" font-weight="700">Projects</text>
  <text x="248" y="102" font-family="system-ui,sans-serif" font-size="13" fill="#71717a">Manage and track all your projects</text>

  <!-- New Project button -->
  <rect x="1050" y="60" width="120" height="36" rx="8" fill="#3b82f6"/>
  <text x="1110" y="83" font-family="system-ui,sans-serif" font-size="13" fill="white" text-anchor="middle" font-weight="500">+ New Project</text>

  <!-- Filter tabs -->
  <rect x="248" y="120" width="50" height="28" rx="6" fill="#3b82f620"/>
  <text x="273" y="138" font-family="system-ui,sans-serif" font-size="12" fill="#3b82f6" text-anchor="middle">All</text>
  <text x="328" y="138" font-family="system-ui,sans-serif" font-size="12" fill="#71717a">Active</text>
  <text x="398" y="138" font-family="system-ui,sans-serif" font-size="12" fill="#71717a">Completed</text>
  <text x="480" y="138" font-family="system-ui,sans-serif" font-size="12" fill="#71717a">Archived</text>

  <!-- Project Cards Grid -->
  <!-- Card 1 -->
  <rect x="248" y="168" width="300" height="160" rx="12" fill="#1a1a1e" stroke="#27272a" stroke-width="1"/>
  <circle cx="274" cy="196" r="10" fill="#3b82f620"/>
  <text x="274" y="200" font-family="system-ui,sans-serif" font-size="10" fill="#3b82f6" text-anchor="middle">FE</text>
  <text x="294" y="200" font-family="system-ui,sans-serif" font-size="14" fill="white" font-weight="600">Frontend Redesign</text>
  <rect x="470" y="188" width="58" height="20" rx="10" fill="#10b98120"/>
  <text x="499" y="202" font-family="system-ui,sans-serif" font-size="10" fill="#10b981" text-anchor="middle">Active</text>
  <text x="268" y="228" font-family="system-ui,sans-serif" font-size="12" fill="#71717a">Complete overhaul of the main dashboard</text>
  <text x="268" y="244" font-family="system-ui,sans-serif" font-size="12" fill="#71717a">and landing pages with new design system.</text>
  <rect x="268" y="262" width="200" height="4" rx="2" fill="#27272a"/>
  <rect x="268" y="262" width="140" height="4" rx="2" fill="#3b82f6"/>
  <text x="268" y="286" font-family="system-ui,sans-serif" font-size="11" fill="#52525b">70% complete · 8 tasks remaining</text>
  <line x1="268" y1="300" x2="528" y2="300" stroke="#27272a" stroke-width="0.5"/>
  <text x="268" y="318" font-family="system-ui,sans-serif" font-size="10" fill="#52525b">4 members</text>
  <text x="500" y="318" font-family="system-ui,sans-serif" font-size="10" fill="#52525b" text-anchor="end">Updated 2h ago</text>

  <!-- Card 2 -->
  <rect x="568" y="168" width="300" height="160" rx="12" fill="#1a1a1e" stroke="#27272a" stroke-width="1"/>
  <circle cx="594" cy="196" r="10" fill="#8b5cf620"/>
  <text x="594" y="200" font-family="system-ui,sans-serif" font-size="10" fill="#8b5cf6" text-anchor="middle">AP</text>
  <text x="614" y="200" font-family="system-ui,sans-serif" font-size="14" fill="white" font-weight="600">API Migration v2</text>
  <rect x="790" y="188" width="58" height="20" rx="10" fill="#f59e0b20"/>
  <text x="819" y="202" font-family="system-ui,sans-serif" font-size="10" fill="#f59e0b" text-anchor="middle">In Review</text>
  <text x="588" y="228" font-family="system-ui,sans-serif" font-size="12" fill="#71717a">Migrate all REST endpoints to v2 with</text>
  <text x="588" y="244" font-family="system-ui,sans-serif" font-size="12" fill="#71717a">new auth system and rate limiting.</text>
  <rect x="588" y="262" width="200" height="4" rx="2" fill="#27272a"/>
  <rect x="588" y="262" width="90" height="4" rx="2" fill="#f59e0b"/>
  <text x="588" y="286" font-family="system-ui,sans-serif" font-size="11" fill="#52525b">45% complete · 14 tasks remaining</text>
  <line x1="588" y1="300" x2="848" y2="300" stroke="#27272a" stroke-width="0.5"/>
  <text x="588" y="318" font-family="system-ui,sans-serif" font-size="10" fill="#52525b">3 members</text>
  <text x="820" y="318" font-family="system-ui,sans-serif" font-size="10" fill="#52525b" text-anchor="end">Updated 5h ago</text>

  <!-- Card 3 -->
  <rect x="888" y="168" width="290" height="160" rx="12" fill="#1a1a1e" stroke="#27272a" stroke-width="1"/>
  <circle cx="914" cy="196" r="10" fill="#10b98120"/>
  <text x="914" y="200" font-family="system-ui,sans-serif" font-size="10" fill="#10b981" text-anchor="middle">MA</text>
  <text x="934" y="200" font-family="system-ui,sans-serif" font-size="14" fill="white" font-weight="600">Mobile App</text>
  <rect x="1100" y="188" width="58" height="20" rx="10" fill="#10b98120"/>
  <text x="1129" y="202" font-family="system-ui,sans-serif" font-size="10" fill="#10b981" text-anchor="middle">Active</text>
  <text x="908" y="228" font-family="system-ui,sans-serif" font-size="12" fill="#71717a">React Native mobile app with offline</text>
  <text x="908" y="244" font-family="system-ui,sans-serif" font-size="12" fill="#71717a">support and push notifications.</text>
  <rect x="908" y="262" width="200" height="4" rx="2" fill="#27272a"/>
  <rect x="908" y="262" width="180" height="4" rx="2" fill="#10b981"/>
  <text x="908" y="286" font-family="system-ui,sans-serif" font-size="11" fill="#52525b">90% complete · 3 tasks remaining</text>
  <line x1="908" y1="300" x2="1158" y2="300" stroke="#27272a" stroke-width="0.5"/>
  <text x="908" y="318" font-family="system-ui,sans-serif" font-size="10" fill="#52525b">2 members</text>
  <text x="1140" y="318" font-family="system-ui,sans-serif" font-size="10" fill="#52525b" text-anchor="end">Updated 1d ago</text>

  <!-- Card 4 -->
  <rect x="248" y="348" width="300" height="160" rx="12" fill="#1a1a1e" stroke="#27272a" stroke-width="1"/>
  <circle cx="274" cy="376" r="10" fill="#ef444420"/>
  <text x="274" y="380" font-family="system-ui,sans-serif" font-size="10" fill="#ef4444" text-anchor="middle">AU</text>
  <text x="294" y="380" font-family="system-ui,sans-serif" font-size="14" fill="white" font-weight="600">Auth System</text>
  <rect x="470" y="368" width="58" height="20" rx="10" fill="#3b82f620"/>
  <text x="499" y="382" font-family="system-ui,sans-serif" font-size="10" fill="#3b82f6" text-anchor="middle">Planning</text>
  <text x="268" y="408" font-family="system-ui,sans-serif" font-size="12" fill="#71717a">OAuth2 + SAML SSO integration with</text>
  <text x="268" y="424" font-family="system-ui,sans-serif" font-size="12" fill="#71717a">MFA support and audit logging.</text>
  <rect x="268" y="442" width="200" height="4" rx="2" fill="#27272a"/>
  <rect x="268" y="442" width="50" height="4" rx="2" fill="#8b5cf6"/>
  <text x="268" y="466" font-family="system-ui,sans-serif" font-size="11" fill="#52525b">25% complete · 18 tasks remaining</text>
  <line x1="268" y1="480" x2="528" y2="480" stroke="#27272a" stroke-width="0.5"/>
  <text x="268" y="498" font-family="system-ui,sans-serif" font-size="10" fill="#52525b">5 members</text>
  <text x="500" y="498" font-family="system-ui,sans-serif" font-size="10" fill="#52525b" text-anchor="end">Updated 30m ago</text>

  <!-- Card 5 -->
  <rect x="568" y="348" width="300" height="160" rx="12" fill="#1a1a1e" stroke="#27272a" stroke-width="1"/>
  <circle cx="594" cy="376" r="10" fill="#f59e0b20"/>
  <text x="594" y="380" font-family="system-ui,sans-serif" font-size="10" fill="#f59e0b" text-anchor="middle">DV</text>
  <text x="614" y="380" font-family="system-ui,sans-serif" font-size="14" fill="white" font-weight="600">DevOps Pipeline</text>
  <rect x="790" y="368" width="58" height="20" rx="10" fill="#71717a20"/>
  <text x="819" y="382" font-family="system-ui,sans-serif" font-size="10" fill="#71717a" text-anchor="middle">Done</text>
  <text x="588" y="408" font-family="system-ui,sans-serif" font-size="12" fill="#71717a">CI/CD pipeline with automated testing,</text>
  <text x="588" y="424" font-family="system-ui,sans-serif" font-size="12" fill="#71717a">staging deploys, and monitoring.</text>
  <rect x="588" y="442" width="200" height="4" rx="2" fill="#27272a"/>
  <rect x="588" y="442" width="200" height="4" rx="2" fill="#71717a"/>
  <text x="588" y="466" font-family="system-ui,sans-serif" font-size="11" fill="#52525b">100% complete · 0 tasks remaining</text>
  <line x1="588" y1="480" x2="848" y2="480" stroke="#27272a" stroke-width="0.5"/>
  <text x="588" y="498" font-family="system-ui,sans-serif" font-size="10" fill="#52525b">2 members</text>
  <text x="820" y="498" font-family="system-ui,sans-serif" font-size="10" fill="#52525b" text-anchor="end">Completed 3d ago</text>

  <!-- Card 6 -->
  <rect x="888" y="348" width="290" height="160" rx="12" fill="#1a1a1e" stroke="#27272a" stroke-width="1"/>
  <circle cx="914" cy="376" r="10" fill="#ec489920"/>
  <text x="914" y="380" font-family="system-ui,sans-serif" font-size="10" fill="#ec4899" text-anchor="middle">DS</text>
  <text x="934" y="380" font-family="system-ui,sans-serif" font-size="14" fill="white" font-weight="600">Design System</text>
  <rect x="1100" y="368" width="58" height="20" rx="10" fill="#10b98120"/>
  <text x="1129" y="382" font-family="system-ui,sans-serif" font-size="10" fill="#10b981" text-anchor="middle">Active</text>
  <text x="908" y="408" font-family="system-ui,sans-serif" font-size="12" fill="#71717a">Component library with Storybook,</text>
  <text x="908" y="424" font-family="system-ui,sans-serif" font-size="12" fill="#71717a">tokens, and documentation.</text>
  <rect x="908" y="442" width="200" height="4" rx="2" fill="#27272a"/>
  <rect x="908" y="442" width="120" height="4" rx="2" fill="#ec4899"/>
  <text x="908" y="466" font-family="system-ui,sans-serif" font-size="11" fill="#52525b">60% complete · 10 tasks remaining</text>
  <line x1="908" y1="480" x2="1158" y2="480" stroke="#27272a" stroke-width="0.5"/>
  <text x="908" y="498" font-family="system-ui,sans-serif" font-size="10" fill="#52525b">3 members</text>
  <text x="1140" y="498" font-family="system-ui,sans-serif" font-size="10" fill="#52525b" text-anchor="end">Updated 6h ago</text>
</svg>